<svg viewBox="0 0 880 250" fill="none" xmlns="http://www.w3.org/2000/svg">
    <path d="M880 0H769V437H880V0Z" fill="#FFBC00"></path>
    <path d="M770 0H660V437H770V0Z" fill="#F1B716"></path>
    <path d="M660 0H549V437H660V0Z" fill="#E2B32B"></path>
    <path d="M551 0H439V437H551V0Z" fill="#D4AE41"></path>
    <path d="M440 0H330V437H440V0Z" fill="#C6A956"></path>
    <path d="M331 0H220V437H331V0Z" fill="#B8A46C"></path>
    <path d="M221 0H110V437H221V0Z" fill="#A9A081"></path>
    <path d="M110 0H0V437H110V0Z" fill="#9B9B97"></path>
    <svg id="logo" width="50%" height="100%" viewBox="-20 50 371 74" fill="none" xmlns="http://www.w3.org/2000/svg">
        <g clip-path="url(#clip0_563_1304)">
            <path d="M76.4504 26.5036V59.1922H68.7723V26.5036L66.5555 24.3036H52.9674V17.4141H92.2553V24.3036H78.689L76.4504 26.5036Z" fill="#010101"></path>
            <path d="M121.091 53.0331H131.282V59.1922H98.1826V53.0331H110.59L112.511 51.1314V36.1766L110.59 34.2705H98.1957V28.1158H119.192V51.1314L121.091 53.0331Z" fill="#010101"></path>
            <path d="M162.857 56.3353C161.01 58.3105 157.243 60.2252 152.735 60.2252C143.285 60.2252 136.565 52.8775 136.565 43.6626C136.565 34.4478 143.285 27.0957 152.735 27.0957C157.243 27.0957 161.01 29.0018 162.857 30.9857H164.629V28.2022H172.159V57.3726C172.159 67.56 163.593 74.0086 153.254 74.0086C145.85 74.0086 140.036 71.666 136.343 67.7069L140.846 62.4295C143.803 65.5804 148.75 67.6161 153.254 67.6161C160.418 67.6161 164.629 63.804 164.629 57.7227V56.3309L162.857 56.3353ZM164.777 46.8049V40.5031C162.116 36.7644 158.645 33.7562 153.772 33.7562C147.936 33.7562 144.317 38.0784 144.317 43.654C144.317 49.2296 147.936 53.5474 153.772 53.5474C158.645 53.5474 162.116 50.5435 164.777 46.8049Z" fill="#010101"></path>
            <path d="M190.364 59.1922H182.834V14.2632H190.364V31.634H192.136C193.402 30.2069 194.959 29.0634 196.704 28.2794C198.449 27.4955 200.342 27.089 202.258 27.0871C209.64 27.0871 214.957 31.5605 214.957 39.8418V59.1922H207.427V41.4713C207.427 37.1491 206.021 33.9204 201.147 33.9204C196.714 33.9032 193.229 37.8623 190.364 42.2709V59.1922Z" fill="#010101"></path>
            <path d="M227.884 34.4175H220.48V28.1158H229.708V17.4141H237.317V28.1158H252.825V34.4175H239.111L237.264 36.2501V44.7518C237.264 50.1027 239.259 53.474 244.429 53.474C249.006 53.474 251.667 51.0579 254.842 46.8783L259.35 52.0088C255.73 57.0657 250.265 60.2209 244.355 60.2209C235.788 60.2209 229.73 55.8252 229.73 45.7848V36.2501L227.884 34.4175Z" fill="#010101"></path>
            <path d="M283.059 60.2166C271.905 60.2166 264.297 53.0331 264.297 43.654C264.297 34.2749 271.905 27.0871 282.153 27.0871C294.635 27.0871 300.323 36.8379 300.323 46.217H273.604L272.128 47.2457C273.53 50.617 277.001 53.474 283.059 53.474C287.562 53.474 291.478 52.0088 295.615 48.9314L299.304 53.9148C293.834 58.237 288.451 60.2166 283.059 60.2166ZM290.737 40.4296L291.403 38.8866C289.853 36.0297 286.456 33.7562 282.171 33.7562C277.963 33.7562 273.974 35.7358 272.276 39.4744L273.582 40.4296H290.737Z" fill="#010101"></path>
            <path d="M316.406 59.1922H308.872V28.1158H316.406V31.634H318.179C319.442 30.2055 320.998 29.061 322.743 28.2769C324.488 27.4928 326.381 27.0871 328.296 27.0871C335.7 27.0871 341 31.5605 341 39.8418V59.1922H333.466V41.4713C333.466 37.1491 332.063 33.9204 327.19 33.9204C322.756 33.9204 319.285 37.8796 316.406 42.2795V59.1922Z" fill="#010101"></path>
            <path d="M119.257 14.2632H110.904V22.5531H119.257V14.2632Z" fill="#010101"></path>
            <path d="M28.413 17.4184L24.0318 13.2259V0H17.2769V13.1913L12.8608 17.4184H0V24.295H12.8913L17.2769 28.4875V41.6658H24.0318V28.4875L28.413 24.295H41.3914V17.4184H28.413Z" fill="#FEBC11"></path>
        </g>
        <defs>
            <clipPath id="clip0_563_1304">
                <rect width="341" height="74" fill="white"></rect>
            </clipPath>
        </defs>
    </svg>
</svg>
